<svg width="393" height="132" viewBox="0 0 393 132" fill="none" xmlns="http://www.w3.org/2000/svg">
<path d="M11.2775 116.517C12.658 116.952 14.1403 117.061 15.5815 116.834C17.0227 116.606 18.3742 116.05 19.5058 115.219C22.3878 113.051 23.2916 109.481 24.0266 106.175L26.2012 96.3947L21.6485 99.2037C18.3742 101.224 15.0263 103.309 12.7594 106.235C10.4926 109.16 9.5036 113.155 11.3244 116.321" fill="#E6E6E6"/>
<path d="M11.9804 129.039C11.4073 125.298 10.8178 121.509 11.2207 117.728C11.5777 114.37 12.7211 111.091 15.0487 108.401C16.2843 106.976 17.7877 105.755 19.4913 104.794C19.9355 104.542 20.3444 105.173 19.9021 105.423C16.9542 107.093 14.6741 109.558 13.3904 112.463C11.9728 115.694 11.7451 119.216 11.9893 122.648C12.1369 124.723 12.4506 126.785 12.7656 128.845C12.7904 128.938 12.7749 129.036 12.7221 129.119C12.6693 129.202 12.5832 129.264 12.4812 129.293C12.3772 129.318 12.2662 129.305 12.1725 129.258C12.0788 129.21 12.0099 129.131 11.9806 129.038L11.9804 129.039Z" fill="#F2F2F2"/>
<path d="M16.1045 123.036C16.6965 123.843 17.5104 124.499 18.4676 124.942C19.4249 125.385 20.4933 125.599 21.57 125.565C24.3375 125.447 26.6437 123.717 28.7196 122.074L34.8609 117.215L30.7965 117.041C27.8736 116.916 24.8752 116.798 22.0912 117.607C19.3072 118.415 16.7397 120.358 16.2307 122.94" fill="#E6E6E6"/>
<path d="M10.3602 131.189C13.119 126.815 16.3187 121.954 22.0365 120.4C23.6262 119.97 25.293 119.816 26.9474 119.946C27.4689 119.986 27.3386 120.706 26.8182 120.666C24.0451 120.46 21.2773 121.116 18.9809 122.524C16.822 123.928 14.9918 125.697 13.594 127.733C12.7019 128.95 11.9029 130.219 11.1039 131.486C10.8485 131.891 10.1019 131.599 10.3602 131.189Z" fill="#F2F2F2"/>
<path d="M263.628 110.8C265.529 111.399 267.57 111.549 269.555 111.236C271.54 110.922 273.401 110.156 274.959 109.012C278.928 106.027 280.172 101.111 281.184 96.5576L284.179 83.0899L277.91 86.958C273.401 89.7397 268.79 92.6109 265.669 96.64C262.547 100.669 261.185 106.17 263.693 110.53" fill="#E6E6E6"/>
<path d="M264.596 128.043C263.807 122.891 262.995 117.673 263.55 112.467C264.042 107.843 265.616 103.327 268.822 99.6232C270.523 97.6612 272.593 95.9802 274.939 94.6557C275.551 94.3099 276.114 95.1783 275.505 95.5228C271.445 97.8215 268.306 101.216 266.538 105.217C264.586 109.666 264.272 114.516 264.609 119.242C264.812 122.1 265.244 124.939 265.677 127.775C265.712 127.904 265.69 128.039 265.618 128.153C265.545 128.268 265.426 128.354 265.286 128.393C265.143 128.428 264.99 128.41 264.861 128.344C264.732 128.279 264.637 128.17 264.597 128.042L264.596 128.043Z" fill="#F2F2F2"/>
<path d="M270.276 119.777C271.092 120.888 272.212 121.791 273.531 122.401C274.849 123.011 276.32 123.306 277.803 123.259C281.614 123.097 284.789 120.714 287.648 118.452L296.105 111.761L290.508 111.521C286.483 111.348 282.354 111.186 278.52 112.3C274.687 113.413 271.151 116.089 270.45 119.645" fill="#E6E6E6"/>
<path d="M262.366 131.004C266.165 124.981 270.571 118.287 278.445 116.147C280.634 115.554 282.929 115.342 285.207 115.521C285.925 115.577 285.746 116.569 285.029 116.513C281.211 116.229 277.399 117.133 274.237 119.072C271.194 120.928 268.824 123.508 266.819 126.245C265.59 127.921 264.49 129.668 263.39 131.413C263.038 131.971 262.01 131.568 262.366 131.004Z" fill="#F2F2F2"/>
<path d="M228.022 20.1718C227.622 20.0155 227.299 19.7326 227.116 19.377C226.933 19.0214 226.903 18.618 227.03 18.2435C227.051 18.1861 227.064 18.1267 227.069 18.0665C227.081 17.8949 227.03 17.7245 226.925 17.5806C226.821 17.4366 226.667 17.3268 226.487 17.2673C226.307 17.2078 226.11 17.2018 225.926 17.2503C225.742 17.2987 225.58 17.399 225.465 17.5363C225.425 17.585 225.392 17.6377 225.366 17.6934C225.192 18.0523 224.876 18.3413 224.479 18.5052C224.082 18.6692 223.632 18.6966 223.214 18.5824C223.15 18.5639 223.084 18.5523 223.016 18.5477C222.825 18.5373 222.635 18.5824 222.474 18.6763C222.314 18.7703 222.191 18.9081 222.125 19.0694C222.058 19.2307 222.051 19.4068 222.106 19.5718C222.16 19.7367 222.272 19.8816 222.425 19.9851C222.479 20.0207 222.538 20.0504 222.6 20.0737C223.001 20.23 223.323 20.5129 223.506 20.8685C223.689 21.2241 223.72 21.6275 223.592 22.002C223.572 22.0594 223.559 22.1188 223.553 22.179C223.542 22.3505 223.592 22.5209 223.697 22.6649C223.802 22.8088 223.956 22.9187 224.136 22.9782C224.316 23.0377 224.512 23.0437 224.696 22.9952C224.88 22.9468 225.042 22.8465 225.158 22.7092C225.197 22.6605 225.231 22.6078 225.256 22.5521C225.431 22.1931 225.747 21.9042 226.143 21.7402C226.54 21.5763 226.991 21.5488 227.409 21.6631C227.473 21.6815 227.539 21.6932 227.606 21.6978C227.798 21.7082 227.988 21.6631 228.148 21.5692C228.309 21.4752 228.432 21.3374 228.498 21.1761C228.564 21.0148 228.571 20.8386 228.517 20.6737C228.463 20.5088 228.351 20.3638 228.198 20.2603C228.143 20.2247 228.085 20.195 228.022 20.1718Z" fill="#CBCBCB"/>
<path d="M261.943 90.9481C261.543 90.7918 261.22 90.5089 261.037 90.1533C260.854 89.7978 260.824 89.3943 260.951 89.0198C260.972 88.9624 260.985 88.903 260.99 88.8429C261.002 88.6713 260.951 88.5009 260.846 88.3569C260.742 88.213 260.588 88.1031 260.408 88.0436C260.228 87.9841 260.031 87.9782 259.847 88.0266C259.663 88.075 259.501 88.1753 259.386 88.3126C259.346 88.3613 259.313 88.414 259.287 88.4697C259.112 88.8287 258.797 89.1176 258.4 89.2816C258.003 89.4455 257.553 89.473 257.135 89.3587C257.071 89.3402 257.004 89.3286 256.937 89.324C256.746 89.3136 256.556 89.3587 256.395 89.4527C256.234 89.5466 256.112 89.6844 256.045 89.8457C255.979 90.007 255.972 90.1832 256.026 90.3481C256.08 90.513 256.192 90.658 256.346 90.7615C256.4 90.7971 256.459 90.8268 256.521 90.85C256.922 91.0063 257.244 91.2892 257.427 91.6448C257.61 92.0004 257.641 92.4038 257.513 92.7783C257.492 92.8357 257.479 92.8952 257.474 92.9553C257.463 93.1269 257.513 93.2973 257.618 93.4412C257.723 93.5852 257.877 93.695 258.057 93.7545C258.237 93.814 258.433 93.82 258.617 93.7715C258.801 93.7231 258.963 93.6228 259.079 93.4855C259.118 93.4368 259.151 93.3841 259.177 93.3284C259.352 92.9695 259.668 92.6805 260.064 92.5166C260.461 92.3526 260.912 92.3252 261.329 92.4394C261.394 92.4579 261.46 92.4695 261.527 92.4741C261.718 92.4845 261.909 92.4394 262.069 92.3455C262.23 92.2515 262.353 92.1137 262.419 91.9524C262.485 91.7911 262.492 91.615 262.438 91.45C262.384 91.2851 262.272 91.1401 262.119 91.0367C262.064 91.0011 262.006 90.9714 261.943 90.9481Z" fill="#F1F1F1"/>
<path d="M84.0996 49.6981C83.699 49.5418 83.3765 49.2589 83.1936 48.9033C83.0106 48.5477 82.98 48.1443 83.1075 47.7698C83.1281 47.7124 83.1411 47.653 83.1462 47.5928C83.1578 47.4212 83.1075 47.2508 83.0026 47.1069C82.8978 46.9629 82.7439 46.8531 82.564 46.7936C82.384 46.7341 82.1874 46.7281 82.0033 46.7766C81.8192 46.825 81.6575 46.9253 81.542 47.0626C81.5023 47.1113 81.4691 47.164 81.4432 47.2197C81.2687 47.5786 80.953 47.8676 80.5561 48.0315C80.1593 48.1955 79.7091 48.2229 79.2911 48.1087C79.227 48.0902 79.1607 48.0786 79.0936 48.074C78.9021 48.0636 78.712 48.1087 78.5513 48.2026C78.3907 48.2966 78.2681 48.4344 78.2017 48.5957C78.1353 48.757 78.1286 48.9331 78.1827 49.0981C78.2367 49.263 78.3487 49.408 78.5018 49.5114C78.5562 49.547 78.615 49.5767 78.6772 49.6C79.0778 49.7563 79.4003 50.0392 79.5832 50.3948C79.7662 50.7504 79.7968 51.1538 79.6694 51.5283C79.6487 51.5857 79.6357 51.6451 79.6306 51.7053C79.619 51.8768 79.6693 52.0472 79.7742 52.1912C79.879 52.3351 80.0329 52.445 80.2128 52.5045C80.3928 52.564 80.5894 52.57 80.7735 52.5215C80.9576 52.4731 81.1193 52.3728 81.2348 52.2355C81.2745 52.1868 81.3077 52.1341 81.3336 52.0784C81.5081 51.7194 81.8238 51.4305 82.2207 51.2665C82.6175 51.1026 83.0677 51.0751 83.4857 51.1894C83.5498 51.2079 83.6161 51.2195 83.6832 51.2241C83.8747 51.2345 84.0648 51.1894 84.2255 51.0955C84.3862 51.0015 84.5088 50.8637 84.5752 50.7024C84.6416 50.5411 84.6482 50.3649 84.5941 50.2C84.5401 50.0351 84.4282 49.8901 84.275 49.7866C84.2206 49.751 84.1618 49.7213 84.0996 49.6981Z" fill="#F1F1F1"/>
<path d="M158.292 24.3158C159.898 24.3158 161.2 23.1494 161.2 21.7105C161.2 20.2717 159.898 19.1053 158.292 19.1053C156.687 19.1053 155.385 20.2717 155.385 21.7105C155.385 23.1494 156.687 24.3158 158.292 24.3158Z" fill="#F1F1F1"/>
<path d="M313.361 17.3684C314.966 17.3684 316.268 16.202 316.268 14.7632C316.268 13.3243 314.966 12.1579 313.361 12.1579C311.755 12.1579 310.453 13.3243 310.453 14.7632C310.453 16.202 311.755 17.3684 313.361 17.3684Z" fill="#003F66"/>
<path d="M87.5423 5.21053C89.1481 5.21053 90.4498 4.04411 90.4498 2.60526C90.4498 1.16642 89.1481 0 87.5423 0C85.9365 0 84.6348 1.16642 84.6348 2.60526C84.6348 4.04411 85.9365 5.21053 87.5423 5.21053Z" fill="#CBCBCB"/>
<path d="M76.3611 123.616C87.8872 123.616 97.2309 115.243 97.2309 104.915C97.2309 94.5875 87.8872 86.2151 76.3611 86.2151C64.835 86.2151 55.4912 94.5875 55.4912 104.915C55.4912 115.243 64.835 123.616 76.3611 123.616Z" fill="#2F2E41"/>
<path d="M73.1908 119.592H66.8506V129.77H73.1908V119.592Z" fill="#2F2E41"/>
<path d="M85.8715 119.592H79.5312V129.77H85.8715V119.592Z" fill="#2F2E41"/>
<path d="M72.1341 131.664C75.0521 131.664 77.4176 130.869 77.4176 129.889C77.4176 128.908 75.0521 128.113 72.1341 128.113C69.2161 128.113 66.8506 128.908 66.8506 129.889C66.8506 130.869 69.2161 131.664 72.1341 131.664Z" fill="#2F2E41"/>
<path d="M84.8148 131.427C87.7328 131.427 90.0983 130.632 90.0983 129.652C90.0983 128.671 87.7328 127.877 84.8148 127.877C81.8968 127.877 79.5312 128.671 79.5312 129.652C79.5312 130.632 81.8968 131.427 84.8148 131.427Z" fill="#2F2E41"/>
<path d="M98.8503 96.7438C103.37 92.6908 105.883 88.3745 104.463 87.1032C103.043 85.8318 98.2279 88.0867 93.7081 92.1397C89.1884 96.1927 86.6755 100.509 88.0955 101.78C89.5155 103.052 94.3306 100.797 98.8503 96.7438Z" fill="#2F2E41"/>
<path d="M59.5401 103.083C60.96 101.812 58.4472 97.4954 53.9274 93.4424C49.4077 89.3894 44.5926 87.1345 43.1727 88.4058C41.7527 89.6772 44.2655 93.9935 48.7853 98.0465C53.305 102.099 58.1201 104.354 59.5401 103.083Z" fill="#2F2E41"/>
<path d="M75.4833 108.657C79.4226 108.657 82.6161 105.795 82.6161 102.265C82.6161 98.7356 79.4226 95.8741 75.4833 95.8741C71.544 95.8741 68.3506 98.7356 68.3506 102.265C68.3506 105.795 71.544 108.657 75.4833 108.657Z" fill="white"/>
<path d="M75.4831 104.396C76.7962 104.396 77.8607 103.442 77.8607 102.265C77.8607 101.089 76.7962 100.135 75.4831 100.135C74.17 100.135 73.1055 101.089 73.1055 102.265C73.1055 103.442 74.17 104.396 75.4831 104.396Z" fill="#3F3D56"/>
<path d="M81.1448 114.086C81.3651 115.17 81.0956 116.289 80.3956 117.195C79.6955 118.102 78.6223 118.722 77.4119 118.919C76.2015 119.117 74.9532 118.875 73.9416 118.248C72.9299 117.621 72.2378 116.659 72.0174 115.574L72.0158 115.566C71.5594 113.308 73.5085 112.508 76.0294 112.099C78.5503 111.69 80.6884 111.827 81.1448 114.086Z" fill="white"/>
<path d="M96.8255 124.542C96.3558 124.542 95.9054 124.71 95.5732 125.007C95.2411 125.305 95.0542 125.708 95.0537 126.129V129.446C95.0542 129.867 95.2411 130.27 95.5732 130.568C95.9054 130.865 96.3558 131.033 96.8255 131.033H125.334C125.803 131.033 126.254 130.865 126.586 130.568C126.918 130.27 127.105 129.867 127.105 129.446V126.129C127.105 125.708 126.918 125.305 126.586 125.007C126.254 124.71 125.803 124.542 125.334 124.542H96.8255Z" fill="#E5E5E5"/>
<path d="M113.219 122.333C113.043 122.242 112.833 122.217 112.636 122.265C112.439 122.312 112.272 122.427 112.17 122.585L111.11 124.23L110.072 122.391C109.98 122.228 109.82 122.105 109.626 122.048C109.432 121.991 109.221 122.005 109.04 122.087C108.858 122.17 108.72 122.314 108.656 122.487C108.593 122.661 108.609 122.85 108.701 123.013L109.509 124.443H109.213V131.132H113.164V124.443H112.747L113.501 123.274C113.602 123.116 113.63 122.928 113.577 122.751C113.524 122.575 113.396 122.425 113.219 122.333Z" fill="#003F66"/>
<path d="M75.8238 92.6497C72.1157 92.6463 68.4293 92.1417 64.8891 91.1528C64.6432 91.0817 64.4286 90.9427 64.2761 90.7558C64.1236 90.5688 64.041 90.3434 64.04 90.1118V82.5C64.0404 82.2122 64.1682 81.9363 64.3953 81.7328C64.6224 81.5293 64.9303 81.4148 65.2515 81.4145H86.5733C86.8945 81.4148 87.2024 81.5293 87.4296 81.7328C87.6567 81.9363 87.7844 82.2122 87.7848 82.5V90.1074C87.7849 90.3409 87.7012 90.5683 87.546 90.7559C87.3907 90.9436 87.1723 91.0814 86.9228 91.1492C83.3252 92.1341 79.5856 92.6397 75.8238 92.6497Z" fill="#003F66"/>
<path opacity="0.2" d="M87.5424 82.5V83.7722L76.0044 87.3979C75.7887 87.4646 75.5538 87.4615 75.3404 87.3892L64.2822 83.668V82.5C64.283 82.2699 64.3853 82.0494 64.5669 81.8867C64.7485 81.724 64.9946 81.6323 65.2514 81.6316H86.5732C86.83 81.6323 87.0761 81.724 87.2577 81.8867C87.4393 82.0494 87.5417 82.2699 87.5424 82.5Z" fill="black"/>
<path d="M75.6816 85.9266C75.5362 85.9267 75.392 85.9034 75.2558 85.8577L58.7309 80.2978C58.4972 80.2191 58.2964 80.0778 58.1558 79.893C58.0152 79.7082 57.9418 79.489 57.9454 79.2654C57.9491 79.0418 58.0298 78.8247 58.1764 78.6437C58.323 78.4627 58.5285 78.3268 58.7646 78.2544L74.3128 73.4882C74.564 73.412 74.836 73.4109 75.0879 73.4852L92.441 78.6684C92.6807 78.74 92.8895 78.877 93.038 79.0601C93.1865 79.2433 93.2674 79.4635 93.2694 79.6899C93.2713 79.9163 93.1942 80.1376 93.0488 80.3228C92.9035 80.5079 92.6971 80.6478 92.4587 80.7227L76.0822 85.8658C75.9535 85.9061 75.818 85.9267 75.6816 85.9266Z" fill="#003F66"/>
<path d="M60.6477 85.5395H60.1631V79.2434H74.943V79.6776H60.6477V85.5395Z" fill="#3F3D56"/>
<path d="M60.4057 86.8421C60.941 86.8421 61.3749 86.4533 61.3749 85.9737C61.3749 85.4941 60.941 85.1053 60.4057 85.1053C59.8704 85.1053 59.4365 85.4941 59.4365 85.9737C59.4365 86.4533 59.8704 86.8421 60.4057 86.8421Z" fill="#3F3D56"/>
<path d="M197.023 123.616C208.549 123.616 217.893 115.243 217.893 104.915C217.893 94.5875 208.549 86.2151 197.023 86.2151C185.497 86.2151 176.153 94.5875 176.153 104.915C176.153 115.243 185.497 123.616 197.023 123.616Z" fill="#2F2E41"/>
<path d="M193.853 119.592H187.513V129.77H193.853V119.592Z" fill="#2F2E41"/>
<path d="M206.533 119.592H200.193V129.77H206.533V119.592Z" fill="#2F2E41"/>
<path d="M192.796 131.664C195.714 131.664 198.08 130.869 198.08 129.889C198.08 128.908 195.714 128.113 192.796 128.113C189.878 128.113 187.513 128.908 187.513 129.889C187.513 130.869 189.878 131.664 192.796 131.664Z" fill="#2F2E41"/>
<path d="M205.477 131.427C208.395 131.427 210.76 130.632 210.76 129.652C210.76 128.671 208.395 127.877 205.477 127.877C202.559 127.877 200.193 128.671 200.193 129.652C200.193 130.632 202.559 131.427 205.477 131.427Z" fill="#2F2E41"/>
<path d="M219.512 96.7438C224.032 92.6908 226.545 88.3745 225.125 87.1032C223.705 85.8318 218.89 88.0867 214.37 92.1397C209.85 96.1927 207.338 100.509 208.758 101.78C210.178 103.052 214.993 100.797 219.512 96.7438Z" fill="#2F2E41"/>
<path d="M178.395 114.102C182.042 109.396 183.662 104.749 182.013 103.723C180.364 102.697 176.071 105.681 172.424 110.387C168.777 115.093 167.157 119.74 168.806 120.766C170.455 121.792 174.748 118.808 178.395 114.102Z" fill="#2F2E41"/>
<path d="M196.145 108.657C200.085 108.657 203.278 105.795 203.278 102.265C203.278 98.7356 200.085 95.8741 196.145 95.8741C192.206 95.8741 189.013 98.7356 189.013 102.265C189.013 105.795 192.206 108.657 196.145 108.657Z" fill="white"/>
<path d="M198.568 102.225C199.881 102.225 200.946 101.271 200.946 100.094C200.946 98.9177 199.881 97.9639 198.568 97.9639C197.255 97.9639 196.19 98.9177 196.19 100.094C196.19 101.271 197.255 102.225 198.568 102.225Z" fill="#3F3D56"/>
<path d="M204.696 114.086C205.396 116.344 202.847 118.508 199.004 118.919C195.16 119.33 191.477 117.833 190.777 115.574L190.774 115.566C190.078 113.308 193.051 112.508 196.895 112.099C200.74 111.69 204 111.827 204.696 114.086Z" fill="white"/>
<path d="M189.72 93.9095C186.279 95.1459 182.648 95.91 178.952 96.176C178.694 96.1922 178.437 96.135 178.218 96.0125C177.999 95.89 177.828 95.7086 177.731 95.494L174.562 88.4317C174.442 88.1646 174.446 87.8659 174.572 87.6011C174.698 87.3364 174.936 87.1273 175.234 87.0196L195.016 79.8921C195.314 79.785 195.648 79.7883 195.943 79.9012C196.239 80.0141 196.472 80.2274 196.592 80.4943L199.759 87.5524C199.857 87.7691 199.874 88.008 199.808 88.234C199.742 88.46 199.597 88.6609 199.393 88.8072C196.466 90.9236 193.206 92.6428 189.72 93.9095Z" fill="#003F66"/>
<path opacity="0.2" d="M196.368 80.5752L196.898 81.7556L187.702 88.9765C187.53 89.1104 187.31 89.1861 187.082 89.1904L175.273 89.4344L174.787 88.3507C174.692 88.137 174.695 87.8982 174.796 87.6865C174.896 87.4748 175.087 87.3075 175.325 87.221L195.107 80.0935C195.346 80.0083 195.612 80.0111 195.848 80.1014C196.085 80.1916 196.271 80.362 196.368 80.5752Z" fill="black"/>
<path d="M186.789 87.7194C186.655 87.7681 186.511 87.7946 186.366 87.7978L168.719 88.1632C168.469 88.1684 168.224 88.1044 168.017 87.9799C167.81 87.8555 167.65 87.6767 167.56 87.468C167.471 87.2593 167.455 87.0309 167.516 86.8139C167.577 86.597 167.711 86.4022 167.899 86.2561L180.341 76.6365C180.542 76.4818 180.794 76.3899 181.059 76.3747L199.317 75.3828C199.569 75.3691 199.82 75.4264 200.034 75.5467C200.248 75.667 200.415 75.8442 200.511 76.0537C200.607 76.2631 200.627 76.4941 200.57 76.7145C200.512 76.935 200.379 77.1337 200.189 77.2829L187.136 87.529C187.033 87.6095 186.916 87.6739 186.789 87.7194Z" fill="#003F66"/>
<path d="M172.681 92.3857L172.231 92.5476L169.61 86.7062L183.323 81.7653L183.504 82.1683L170.24 86.9472L172.681 92.3857Z" fill="#3F3D56"/>
<path d="M172.636 93.7379C173.171 93.7379 173.605 93.3491 173.605 92.8695C173.605 92.3899 173.171 92.0011 172.636 92.0011C172.101 92.0011 171.667 92.3899 171.667 92.8695C171.667 93.3491 172.101 93.7379 172.636 93.7379Z" fill="#3F3D56"/>
<path d="M276.475 60.7326C273.329 58.9736 270.498 56.7993 268.076 54.2833C267.909 54.1064 267.809 53.8868 267.79 53.6559C267.77 53.4249 267.833 53.1945 267.969 52.9974L272.459 46.5357C272.629 46.2916 272.9 46.1179 273.213 46.0527C273.526 45.9875 273.855 46.0361 274.128 46.188L292.228 56.2859C292.5 56.4383 292.694 56.6813 292.767 56.9617C292.84 57.242 292.785 57.5367 292.616 57.7812L288.129 64.2391C287.991 64.4375 287.786 64.5908 287.543 64.6766C287.301 64.7623 287.034 64.7759 286.782 64.7153C283.147 63.8476 279.675 62.5057 276.475 60.7326Z" fill="#003F66"/>
<path opacity="0.2" d="M292.41 57.6664L291.66 58.7464L279.726 56.3599C279.504 56.3143 279.306 56.2005 279.168 56.038L271.976 47.642L272.665 46.6504C272.801 46.4554 273.018 46.3167 273.268 46.2646C273.518 46.2125 273.781 46.2512 274 46.3722L292.1 56.4702C292.317 56.5924 292.472 56.7868 292.53 57.0109C292.589 57.235 292.545 57.4707 292.41 57.6664Z" fill="black"/>
<path d="M280.32 54.958C280.196 54.8892 280.088 54.8011 279.999 54.6978L269.25 42.1518C269.099 41.9744 269.011 41.7593 269.001 41.5358C268.991 41.3124 269.058 41.0915 269.193 40.9035C269.328 40.7154 269.524 40.5693 269.755 40.4851C269.987 40.4009 270.241 40.3827 270.484 40.4331L286.495 43.7507C286.753 43.8049 286.985 43.9329 287.155 44.1153L298.828 56.7337C298.99 56.908 299.086 57.1231 299.104 57.3489C299.122 57.5748 299.061 57.8 298.929 57.9931C298.797 58.1862 298.601 58.3375 298.368 58.4259C298.136 58.5142 297.878 58.5352 297.632 58.4859L280.696 55.096C280.563 55.0693 280.436 55.0227 280.32 54.958Z" fill="#003F66"/>
<path d="M267.786 47.5096L267.375 47.2799L271.089 41.9352L283.636 48.9351L283.379 49.3033L271.244 42.5331L267.786 47.5096Z" fill="#3F3D56"/>
<path d="M267.325 48.6317C267.86 48.6317 268.294 48.2429 268.294 47.7633C268.294 47.2836 267.86 46.8948 267.325 46.8948C266.789 46.8948 266.355 47.2836 266.355 47.7633C266.355 48.2429 266.789 48.6317 267.325 48.6317Z" fill="#3F3D56"/>
<path d="M326.965 102.339C338.491 102.339 347.834 93.967 347.834 83.6391C347.834 73.3112 338.491 64.9388 326.965 64.9388C315.438 64.9388 306.095 73.3112 306.095 83.6391C306.095 93.967 315.438 102.339 326.965 102.339Z" fill="#2F2E41"/>
<path d="M341.432 93.3354L336.022 96.298L341.946 104.983L347.356 102.021L341.432 93.3354Z" fill="#2F2E41"/>
<path d="M330.612 99.2605L325.202 102.223L331.126 110.908L336.536 107.946L330.612 99.2605Z" fill="#2F2E41"/>
<path d="M343.95 106.105C346.44 104.742 347.995 102.958 347.425 102.121C346.854 101.285 344.373 101.712 341.883 103.075C339.393 104.439 337.838 106.222 338.408 107.059C338.979 107.896 341.46 107.469 343.95 106.105Z" fill="#2F2E41"/>
<path d="M332.993 111.828C335.482 110.465 337.038 108.681 336.468 107.845C335.897 107.008 333.416 107.435 330.926 108.799C328.436 110.162 326.881 111.946 327.451 112.782C328.022 113.619 330.503 113.192 332.993 111.828Z" fill="#2F2E41"/>
<path d="M315.23 80.5041C316.649 79.2327 314.137 74.9164 309.617 70.8635C305.097 66.8105 300.282 64.5555 298.862 65.8269C297.442 67.0983 299.955 71.4145 304.475 75.4675C308.994 79.5205 313.81 81.7755 315.23 80.5041Z" fill="#2F2E41"/>
<path d="M355.181 99.4896C356.83 98.4637 355.21 93.8168 351.563 89.1105C347.916 84.4042 343.623 81.4207 341.974 82.4466C340.325 83.4725 341.945 88.1193 345.592 92.8256C349.239 97.5319 353.532 100.515 355.181 99.4896Z" fill="#2F2E41"/>
<path d="M320.573 84.775C324.512 84.775 327.706 81.9136 327.706 78.3838C327.706 74.854 324.512 71.9926 320.573 71.9926C316.634 71.9926 313.44 74.854 313.44 78.3838C313.44 81.9136 316.634 84.775 320.573 84.775Z" fill="white"/>
<path d="M318.151 78.3431C319.464 78.3431 320.529 77.3893 320.529 76.2127C320.529 75.0361 319.464 74.0823 318.151 74.0823C316.838 74.0823 315.773 75.0361 315.773 76.2127C315.773 77.3893 316.838 78.3431 318.151 78.3431Z" fill="#3F3D56"/>
<path d="M311.389 89.045C310.036 91.0306 311.839 93.7169 315.414 95.045C318.99 96.373 322.985 95.8399 324.337 93.8543L324.342 93.8472C325.691 91.8603 323.071 90.3738 319.494 89.0477C315.917 87.7216 312.738 87.0581 311.389 89.045Z" fill="white"/>
<path d="M319.961 60.1586C321.825 53.434 330.051 49.4767 338.334 51.3198C346.618 53.1628 351.822 60.1083 349.959 66.8329C348.095 73.5575 341.913 73.5793 333.629 71.7362C325.345 69.8931 318.098 66.8833 319.961 60.1586Z" fill="#E6E6E6"/>
<path d="M392.515 132H0.484587C0.356066 132 0.23281 131.954 0.141932 131.873C0.0510542 131.791 0 131.681 0 131.566C0 131.451 0.0510542 131.34 0.141932 131.259C0.23281 131.177 0.356066 131.132 0.484587 131.132H392.515C392.644 131.132 392.767 131.177 392.858 131.259C392.949 131.34 393 131.451 393 131.566C393 131.681 392.949 131.791 392.858 131.873C392.767 131.954 392.644 132 392.515 132Z" fill="#CBCBCB"/>
</svg>
