<svg width="306" height="284" viewBox="0 0 306 284" fill="none" xmlns="http://www.w3.org/2000/svg">
<g clip-path="url(#clip0)">
<path d="M163.479 243.708L34.9783 243.119L22.2101 214.964L67.3587 211.883L59.4898 181.014L148.788 170.133L63.2779 142.187L70.8314 140.5L208.331 161.588L200.759 209.762L189.935 236.236L163.479 243.708Z" fill="#003F66"/>
<path d="M36.9493 231.327C36.9493 231.327 44.8333 230.141 49.5636 235.378C49.5636 235.378 46.0947 237.948 38.6312 234.39L36.9493 231.327Z" fill="#003F66"/>
<path d="M36.1235 231.21C36.1235 231.21 31.0928 237.03 33.5706 243.51C33.5706 243.51 37.6702 241.968 38.117 234.111L36.1235 231.21Z" fill="#003F66"/>
<path d="M31.6034 221.642C31.6034 221.642 34.757 216.203 47.3713 223.816C47.3713 223.816 45.6894 227.472 40.118 227.176C34.5467 226.88 33.0751 224.508 31.6034 221.642Z" fill="#003F66"/>
<path d="M30.7886 221.25C30.7886 221.25 24.2449 220.544 23.6105 234.627C23.6105 234.627 27.7589 235.435 30.706 230.981C33.6531 226.527 32.4442 224.028 30.7886 221.25Z" fill="#003F66"/>
<path d="M26.978 210.016C26.978 210.016 30.6572 200.43 44.0073 207.249C44.0073 207.249 40.9589 216.044 28.3446 213.277L26.978 210.016Z" fill="#003F66"/>
<path d="M22.8784 195.686C22.8784 195.686 29.8163 186.002 42.1152 194.98C42.1152 194.98 37.8053 204.072 23.9296 199.131L22.8784 195.686Z" fill="#003F66"/>
<path d="M21.4067 182.049C21.4067 182.049 29.5009 173.151 41.6797 182.049C41.6797 182.049 34.006 189.856 21.4067 184.322V182.049Z" fill="#003F66"/>
<path d="M20.1453 168.803C20.1453 168.803 28.3446 159.513 40.0128 168.308C40.0128 168.308 30.7623 176.511 20.1453 170.977V168.803Z" fill="#003F66"/>
<path d="M20.8811 157.042C20.8811 157.042 29.5159 145.085 40.4333 153.188C40.4333 153.188 31.1828 163.466 20.8811 159.315V157.042Z" fill="#003F66"/>
<path d="M22.8784 143.306C22.8784 143.306 32.0238 131.447 42.6408 140.539C42.6408 140.539 31.8135 150.817 22.8784 145.48V143.306Z" fill="#003F66"/>
<path d="M25.9268 131.027C25.9268 131.027 36.754 119.881 46.1997 124.321C46.1997 124.321 34.9182 136.159 25.4537 133.985L25.9268 131.027Z" fill="#003F66"/>
<path d="M29.7112 119.387C29.7112 119.387 42.2054 105.735 49.4736 110.295C49.4736 110.295 40.2682 120.883 28.8252 121.942L29.7112 119.387Z" fill="#003F66"/>
<path d="M35.1736 105.887C35.1736 105.887 46.1097 94.7407 54.0988 97.5078C54.0988 97.5078 44.7432 109.07 33.7057 109.367L35.1736 105.887Z" fill="#003F66"/>
<path d="M40.118 93.2584C40.118 93.2584 52.2067 82.5854 57.4626 84.463C57.4626 84.463 48.7378 96.322 39.5924 95.6302L40.118 93.2584Z" fill="#003F66"/>
<path d="M44.9534 81.5972C44.9534 81.5972 55.3602 68.8453 61.0403 69.8335C61.0403 69.8335 54.7294 81.2019 44.9534 82.8925V81.5972Z" fill="#003F66"/>
<path d="M50.2018 65.8735C50.2018 65.8735 59.3997 56.1005 64.3704 56.1217C64.3704 56.1217 57.1096 69.1806 49.8226 69.0606L50.2018 65.8735Z" fill="#003F66"/>
<path d="M53.3104 55.4052L62.1968 35.0474C62.1968 35.0474 62.6398 53.4499 52.1804 59.1817L53.3104 55.4052Z" fill="#003F66"/>
<path d="M56.9182 32.9544C56.9182 32.9544 58.3899 15.9531 57.4438 14.5695C57.4438 14.5695 63.796 28.7049 56.8582 40.465L56.9182 32.9544Z" fill="#003F66"/>
<path d="M26.6327 209.79C26.6327 209.79 17.4197 204.422 11.4542 217.555C11.4542 217.555 19.6535 222.672 27.7176 213.139L26.6327 209.79Z" fill="#003F66"/>
<path d="M22.5818 195.139C22.5818 195.139 11.2815 190.293 5.80029 204.005C5.80029 204.005 14.5289 209.652 23.6105 198.605L22.5818 195.139Z" fill="#003F66"/>
<path d="M20.8811 182.864C20.8811 182.864 12.787 173.966 0.608154 182.864C0.608154 182.864 8.28185 190.671 20.8811 185.137V182.864Z" fill="#003F66"/>
<path d="M19.8675 168.803C19.8675 168.803 11.6682 159.513 0 168.308C0 168.308 9.25048 176.511 19.8675 170.977V168.803Z" fill="#003F66"/>
<path d="M20.8811 157.381C20.8811 157.381 15.1296 143.987 2.62793 149.747C2.62793 149.747 9.38558 161.624 20.3705 159.605L20.8811 157.381Z" fill="#003F66"/>
<path d="M23.603 143.239C23.603 143.239 17.8853 129.612 5.20715 135.929C5.20715 135.929 12.9709 148.42 23.0399 145.342L23.603 143.239Z" fill="#003F66"/>
<path d="M27.1469 131.094C27.1469 131.094 24.8944 116.154 14.3824 114.816C14.3824 114.816 16.6125 130.572 25.7316 133.787L27.1469 131.094Z" fill="#003F66"/>
<path d="M29.9777 119.415C29.9777 119.415 29.0992 101.415 20.4081 100.787C20.4081 100.787 20.7009 114.449 28.9978 121.963L29.9777 119.415Z" fill="#003F66"/>
<path d="M36.0747 105.382C36.0747 105.382 33.4843 90.4137 25.1874 88.5854C25.1874 88.5854 26.216 103.081 35.2525 109.056L36.0747 105.382Z" fill="#003F66"/>
<path d="M41.1015 93.3819C41.1015 93.3819 41.0152 77.7888 35.9469 75.4982C35.9469 75.4982 32.8046 89.616 39.6336 95.3725L41.1015 93.3819Z" fill="#003F66"/>
<path d="M45.3401 81.4206C45.3401 81.4206 44.6305 65.3652 39.3821 63.1028C39.3821 63.1028 37.5876 75.8088 44.5554 82.4724L45.3401 81.4206Z" fill="#003F66"/>
<path d="M50.9339 67.1547C50.9339 67.1547 50.9039 54.0958 47.1572 51.0322C47.1572 51.0322 43.4329 65.3371 48.978 69.7806L50.9339 67.1547Z" fill="#003F66"/>
<path d="M52.8711 54.7628L49.2257 33.0285C49.2257 33.0285 44.2739 50.8381 53.0438 58.6875L52.8711 54.7628Z" fill="#003F66"/>
<path d="M53.5807 33.1591C53.5807 33.1591 44.2251 18.5472 44.4166 16.9236C44.4166 16.9236 45.4115 32.2379 57.181 39.865L53.5807 33.1591Z" fill="#003F66"/>
<path d="M54.6769 28.8426C54.6769 28.8426 45.8469 8.0895 41.8524 6.40948C41.8524 6.40948 54.4667 12.4378 55.4128 28.2497L54.6769 28.8426Z" fill="#003F66"/>
<path d="M49.7777 69.1841L49.1732 69.0111C56.6254 46.1651 58.4838 31.5991 54.4104 27.9461L54.8421 27.5155C59.1633 31.3697 57.41 45.7768 49.7777 69.1841Z" fill="#444053"/>
<path d="M29.2569 122.676L28.3634 122.376C29.1556 120.283 30.0078 118.159 30.9013 116.066C38.6801 97.8396 45.3026 80.8842 49.5487 67.8676L50.3258 67.5146C46.0722 80.5559 39.5661 98.1608 31.7798 116.411C30.89 118.466 30.0416 120.58 29.2569 122.676Z" fill="#444053"/>
<path d="M48.0583 248.423C47.9381 248.3 35.8607 235.513 27.4399 213.683C22.5058 200.903 19.7599 187.467 19.3044 173.878C18.7263 156.891 22.5181 137.923 29.0129 120.693L29.7187 121.469C15.1372 160.141 20.93 193.279 28.615 213.235C36.9457 234.867 48.8879 247.513 49.0043 247.64L48.0583 248.423Z" fill="#444053"/>
<path d="M236.792 221.275C236.792 221.275 228.281 231.041 235.039 245.804L167.087 273.51L160.566 274.795L157.562 262.442L159.571 246.853V238.333L236.792 221.275Z" fill="#D5D6DB"/>
<path d="M22.2101 214.964L116.262 198.845L240.884 217.509L163.479 243.708L22.2101 214.964Z" fill="#003F66"/>
<path d="M22.2101 214.964L116.262 198.845L240.884 217.509L163.479 243.708L22.2101 214.964Z" fill="#003F66"/>
<path d="M22.2102 214.961C22.2102 214.961 13.414 230.628 23.5505 245.098L163.021 273.51C163.021 273.51 154.364 261.03 163.468 243.708L22.2102 214.961Z" fill="#003F66"/>
<path opacity="0.1" d="M22.2102 214.961C22.2102 214.961 13.414 230.628 23.5505 245.098L163.021 273.51C163.021 273.51 154.364 261.03 163.468 243.708L22.2102 214.961Z" fill="black"/>
<path opacity="0.1" d="M26.366 220.392C26.366 220.392 21.3391 231.856 26.366 239.275V220.392Z" fill="black"/>
<path d="M163.021 273.51L240.884 242.275C240.884 242.275 245.239 243.157 242.423 246.157C239.608 249.157 164.523 276.51 164.523 276.51L23.5504 245.098L163.021 273.51Z" fill="#003F66"/>
<path opacity="0.1" d="M163.021 273.51L240.884 242.275C240.884 242.275 245.239 243.157 242.423 246.157C239.608 249.157 164.523 276.51 164.523 276.51L23.5504 245.098L163.021 273.51Z" fill="black"/>
<path opacity="0.1" d="M156.639 246.863C156.639 246.863 149.13 255.334 156.639 268.04V246.863Z" fill="black"/>
<path opacity="0.1" d="M192.99 246.72L159.311 257.283L159.43 257.618L193.109 247.055L192.99 246.72Z" fill="black"/>
<path opacity="0.1" d="M199.736 245.669L159.3 260.124L159.434 260.454L199.869 245.999L199.736 245.669Z" fill="black"/>
<path opacity="0.1" d="M205.931 245.618L159.526 263.475L159.668 263.802L206.073 245.945L205.931 245.618Z" fill="black"/>
<path opacity="0.1" d="M212.668 244.089L160.068 266.427L160.222 266.749L212.822 244.411L212.668 244.089Z" fill="black"/>
<path opacity="0.1" d="M218.328 244.096L160.484 267.866L160.634 268.189L218.478 244.42L218.328 244.096Z" fill="black"/>
<path opacity="0.1" d="M230.707 242.12L161.356 270.279L161.505 270.603L230.856 242.444L230.707 242.12Z" fill="black"/>
<path opacity="0.3" d="M57.151 216.687L123.226 203.628L163.479 210.863L109.335 227.275L57.151 216.687Z" fill="white"/>
<path d="M240.884 217.509C240.884 217.509 244.301 218.804 242.296 220.805C240.291 222.807 163.468 243.708 163.468 243.708L240.884 217.509Z" fill="#003F66"/>
<path d="M274.068 187.329C274.068 187.329 265.561 197.091 272.319 211.858L204.367 239.564L197.845 240.856L194.842 228.503L196.881 212.917V204.386L274.068 187.329Z" fill="#D5D6DB"/>
<path d="M59.4899 181.014L153.538 164.899L278.164 183.563L200.759 209.762L59.4899 181.014Z" fill="#3A3768"/>
<path d="M59.4749 181.014C59.4749 181.014 50.6749 196.682 60.8114 211.152L200.282 239.564C200.282 239.564 191.628 227.074 200.744 209.758L59.4749 181.014Z" fill="#3A3768"/>
<path opacity="0.1" d="M59.4749 181.014C59.4749 181.014 50.6749 196.682 60.8114 211.152L200.282 239.564C200.282 239.564 191.628 227.074 200.744 209.758L156.639 200.783L59.4749 181.014Z" fill="black"/>
<path opacity="0.1" d="M63.6421 186.446C63.6421 186.446 58.6189 197.906 63.6421 205.329V186.446Z" fill="black"/>
<path d="M200.297 239.564L278.164 208.329C278.164 208.329 282.515 209.211 279.699 212.211C276.884 215.211 201.799 242.564 201.799 242.564L60.8264 211.152L200.297 239.564Z" fill="#3A3768"/>
<path opacity="0.1" d="M200.297 239.564L278.164 208.329C278.164 208.329 282.515 209.211 279.699 212.211C276.884 215.211 201.799 242.564 201.799 242.564L60.8264 211.152L200.297 239.564Z" fill="black"/>
<path opacity="0.1" d="M193.915 212.917C193.915 212.917 186.406 221.388 193.915 234.094V212.917Z" fill="black"/>
<path opacity="0.1" d="M230.269 212.778L196.59 223.341L196.709 223.676L230.388 213.112L230.269 212.778Z" fill="black"/>
<path opacity="0.1" d="M237.019 211.725L196.584 226.18L196.717 226.51L237.153 212.055L237.019 211.725Z" fill="black"/>
<path opacity="0.1" d="M243.209 211.669L196.804 229.526L196.946 229.853L243.351 211.996L243.209 211.669Z" fill="black"/>
<path opacity="0.1" d="M249.95 210.141L197.35 232.479L197.505 232.8L250.105 210.462L249.95 210.141Z" fill="black"/>
<path opacity="0.1" d="M255.605 210.144L197.761 233.913L197.912 234.236L255.755 210.467L255.605 210.144Z" fill="black"/>
<path opacity="0.1" d="M267.987 208.167L198.636 236.327L198.785 236.651L268.136 208.491L267.987 208.167Z" fill="black"/>
<path opacity="0.45" d="M94.4307 182.74L160.506 169.681L200.759 176.917L146.615 193.329L94.4307 182.74Z" fill="white"/>
<path d="M278.164 183.563C278.164 183.563 281.576 184.858 279.575 186.856C277.574 188.853 200.759 209.758 200.759 209.758L278.164 183.563Z" fill="#3A3768"/>
<path d="M277.597 148.494C277.597 148.494 269.086 166.025 275.844 180.788L207.892 200.73L201.386 202.025L198.382 189.672L200.391 174.083V165.552L277.597 148.494Z" fill="#D5D6DB"/>
<path d="M63.0302 142.184L157.082 126.065L281.708 144.728L204.299 170.927L63.0302 142.184Z" fill="#003F66"/>
<path d="M63.0301 142.18C63.0301 142.18 54.2189 157.847 64.3554 172.318L203.826 200.73C203.826 200.73 195.169 188.239 204.284 170.927L63.0301 142.18Z" fill="#003F66"/>
<path opacity="0.1" d="M63.0301 142.18C63.0301 142.18 54.2189 157.847 64.3554 172.318L203.826 200.73C203.826 200.73 195.169 188.239 204.284 170.927L63.0301 142.18Z" fill="black"/>
<path opacity="0.1" d="M67.1861 147.612C67.1861 147.612 62.1591 159.075 67.1861 166.494V147.612Z" fill="black"/>
<path d="M203.841 200.73L281.704 177.259C281.704 177.259 286.059 178.141 283.243 181.141C280.428 184.142 205.343 203.73 205.343 203.73L64.3705 172.318L203.841 200.73Z" fill="#003F66"/>
<path opacity="0.1" d="M203.841 200.73L281.704 177.259C281.704 177.259 286.059 178.141 283.243 181.141C280.428 184.142 205.343 203.73 205.343 203.73L64.3705 172.318L203.841 200.73Z" fill="black"/>
<path opacity="0.1" d="M197.459 174.083C197.459 174.083 189.95 182.553 197.459 195.259V174.083Z" fill="black"/>
<path opacity="0.1" d="M233.814 173.942L200.135 184.506L200.254 184.841L233.933 174.277L233.814 173.942Z" fill="black"/>
<path opacity="0.1" d="M240.562 172.891L200.126 187.347L200.26 187.677L240.695 173.221L240.562 172.891Z" fill="black"/>
<path opacity="0.1" d="M246.748 172.838L200.343 190.694L200.485 191.021L246.89 173.164L246.748 172.838Z" fill="black"/>
<path opacity="0.1" d="M253.494 171.306L200.894 193.644L201.049 193.966L253.649 171.628L253.494 171.306Z" fill="black"/>
<path opacity="0.1" d="M259.151 171.312L201.307 195.081L201.458 195.405L259.301 171.636L259.151 171.312Z" fill="black"/>
<path opacity="0.1" d="M271.532 169.338L202.181 197.498L202.33 197.822L271.681 169.662L271.532 169.338Z" fill="black"/>
<path opacity="0.3" d="M97.9709 143.906L164.046 130.847L204.299 138.082L150.155 154.494L97.9709 143.906Z" fill="white"/>
<path d="M281.704 144.728C281.704 144.728 285.121 146.023 283.116 148.025C281.111 150.026 204.299 170.927 204.299 170.927L281.704 144.728Z" fill="#003F66"/>
<path d="M116.54 37.5885C116.54 37.5885 102.273 36.7803 103.94 46.1898C103.94 46.1898 103.606 47.8522 105.209 48.6075C105.209 48.6075 105.235 47.9016 106.673 48.1451C107.186 48.228 107.708 48.2517 108.228 48.2157C108.928 48.1706 109.593 47.913 110.124 47.4816C110.124 47.4816 114.137 45.9215 115.699 39.7521C115.699 39.7521 116.855 38.4074 116.825 38.0615L114.407 39.0286C114.407 39.0286 115.229 40.6627 114.584 42.0215C114.584 42.0215 114.505 39.0886 114.039 39.1556C113.945 39.1556 112.789 39.7239 112.789 39.7239C112.789 39.7239 114.204 42.5721 113.134 44.6404C113.134 44.6404 113.54 41.1321 112.346 39.9286L110.649 40.8603C110.649 40.8603 112.305 43.8004 111.182 46.2004C111.182 46.2004 111.471 42.5192 110.292 41.0862L108.753 42.2156C108.753 42.2156 110.311 45.1133 109.361 47.1039C109.361 47.1039 109.238 42.8192 108.423 42.4945C108.423 42.4945 107.075 43.6098 106.872 44.0686C106.872 44.0686 107.939 46.1863 107.274 47.2839C107.274 47.2839 106.872 44.4286 106.523 44.4145C106.523 44.4145 105.183 46.3063 105.044 47.591C105.109 46.3933 105.506 45.2324 106.197 44.2239C105.424 44.3613 104.711 44.7085 104.147 45.2227C104.147 45.2227 104.353 43.8851 106.531 43.7686C106.531 43.7686 107.638 42.3321 107.935 42.2474C107.935 42.2474 105.769 42.0745 104.458 42.6215C104.458 42.6215 105.615 41.3615 108.329 41.9156L109.831 40.7509C109.831 40.7509 106.985 40.398 105.776 40.7897C105.776 40.7897 107.169 39.6744 110.24 40.4862L111.896 39.558C111.896 39.558 109.467 39.0674 108.021 39.2438C108.021 39.2438 109.545 38.4709 112.38 39.3074L113.559 38.8097C113.559 38.8097 111.783 38.4815 111.261 38.4285C110.739 38.3756 110.713 38.2415 110.713 38.2415C111.84 38.0675 112.996 38.1896 114.054 38.5944C114.054 38.5944 116.588 37.7368 116.54 37.5885Z" fill="#003F66"/>
<path opacity="0.1" d="M317.242 76.2641C317.242 76.2641 302.976 75.4559 304.643 84.8654C304.643 84.8654 304.308 86.5278 305.911 87.2831C305.911 87.2831 305.938 86.5772 307.376 86.8207C307.889 86.9017 308.411 86.9253 308.93 86.8913C309.623 86.8433 310.282 86.5858 310.807 86.1572C310.807 86.1572 314.824 84.5972 316.382 78.4277C316.382 78.4277 317.538 77.083 317.508 76.7371L315.098 77.7041C315.098 77.7041 315.92 79.3383 315.275 80.6971C315.275 80.6971 315.196 77.7642 314.734 77.8312C314.64 77.8312 313.48 78.3994 313.48 78.3994C313.48 78.3994 314.895 81.2477 313.829 83.316C313.829 83.316 314.235 79.8077 313.037 78.6042L311.34 79.5359C311.34 79.5359 312.996 82.476 311.873 84.876C311.873 84.876 312.162 81.1948 310.983 79.7618L309.448 80.8912C309.448 80.8912 311.002 83.7889 310.052 85.7795C310.052 85.7795 309.929 81.4948 309.114 81.1701C309.114 81.1701 307.77 82.2854 307.563 82.7442C307.563 82.7442 308.63 84.8619 307.969 85.9595C307.969 85.9595 307.563 83.1042 307.218 83.0901C307.218 83.0901 305.878 84.9819 305.739 86.2666C305.804 85.0684 306.203 83.9072 306.895 82.8995C306.122 83.0372 305.408 83.3844 304.842 83.8983C304.842 83.8983 305.052 82.5607 307.225 82.4442C307.225 82.4442 308.333 81.0077 308.63 80.9195C308.63 80.9195 306.467 80.7501 305.153 81.2971C305.153 81.2971 306.309 80.0371 309.024 80.5912L310.525 79.4265C310.525 79.4265 307.676 79.0736 306.471 79.4653C306.471 79.4653 307.86 78.35 310.935 79.1618L312.587 78.2336C312.587 78.2336 310.158 77.743 308.712 77.9194C308.712 77.9194 310.236 77.1465 313.071 77.983L314.253 77.4853C314.253 77.4853 312.474 77.1571 311.952 77.1041C311.43 77.0512 311.404 76.9171 311.404 76.9171C312.531 76.7408 313.688 76.863 314.745 77.27C314.745 77.27 317.287 76.4124 317.242 76.2641Z" fill="#003F66"/>
<path opacity="0.1" d="M140.567 95.7185C140.567 95.7185 134.35 83.6019 126.436 89.5737C126.436 89.5737 124.728 90.1102 124.81 91.7937C124.81 91.7937 125.467 91.4725 125.936 92.7714C126.112 93.2305 126.344 93.6688 126.627 94.0773C127.011 94.631 127.577 95.0522 128.238 95.2773C128.238 95.2773 131.643 97.8114 138.134 96.082C138.134 96.082 139.947 96.3749 140.244 96.1702L138.172 94.6632C138.172 94.6632 137.045 96.1349 135.476 96.2655C135.476 96.2655 138.164 94.7726 137.875 94.4267C137.815 94.3561 136.749 93.6749 136.749 93.6749C136.749 93.6749 134.793 96.2267 132.352 96.3573C132.352 96.3573 135.806 94.9808 136.339 93.4102L134.65 92.4714C134.65 92.4714 132.724 95.2667 129.95 95.5138C129.95 95.5138 133.509 93.9573 134.263 92.2914L132.469 91.5855C132.469 91.5855 130.535 94.2749 128.223 94.469C128.223 94.469 132.142 92.2772 132.045 91.4478C132.045 91.4478 130.351 90.8902 129.826 90.9431C129.826 90.9431 128.392 92.8455 127.04 92.8455C127.04 92.8455 129.492 91.1196 129.342 90.8408C129.342 90.8408 126.931 90.6643 125.662 91.1937C126.806 90.6594 128.078 90.416 129.353 90.4878C128.847 89.9209 128.176 89.5051 127.423 89.2913C127.423 89.2913 128.767 88.8113 129.935 90.5372C129.935 90.5372 131.812 90.7455 132.033 90.9467C132.033 90.9467 131.136 89.0902 129.991 88.2819C129.991 88.2819 131.725 88.6101 132.518 91.1055L134.338 91.7831C134.338 91.7831 133.291 89.2702 132.326 88.476C132.326 88.476 134.038 89.0725 134.785 92.0055L136.452 92.909C136.452 92.909 135.728 90.6749 134.857 89.5772C134.857 89.5772 136.317 90.4525 136.921 93.1843L137.961 93.9114C137.961 93.9114 137.398 92.2914 137.21 91.8396C137.023 91.3878 137.117 91.2961 137.117 91.2961C137.831 92.134 138.283 93.1422 138.423 94.2079C138.423 94.2079 140.432 95.8243 140.567 95.7185Z" fill="#003F66"/>
<path opacity="0.1" d="M284.647 59.1464C284.647 59.1464 278.434 47.0299 270.516 53.0017C270.516 53.0017 268.812 53.5381 268.891 55.2217C268.891 55.2217 269.552 54.904 270.017 56.1993C270.192 56.6603 270.425 57.1 270.712 57.5088C271.094 58.0614 271.659 58.4815 272.318 58.7052C272.318 58.7052 275.727 61.2394 282.215 59.5135C282.215 59.5135 284.028 59.8029 284.328 59.5982L282.267 58.0876C282.267 58.0876 281.141 59.5629 279.575 59.6935C279.575 59.6935 282.26 58.197 281.971 57.8511C281.911 57.7805 280.844 57.0993 280.844 57.0993C280.844 57.0993 278.892 59.6511 276.448 59.7817C276.448 59.7817 279.906 58.4052 280.439 56.8382L278.723 55.9064C278.723 55.9064 276.801 58.6982 274.023 58.9488C274.023 58.9488 277.582 57.3888 278.34 55.7229L276.542 55.017C276.542 55.017 274.609 57.7099 272.3 57.9005C272.3 57.9005 276.215 55.7087 276.118 54.8829C276.118 54.8829 274.428 54.3217 273.903 54.3781C273.903 54.3781 272.469 56.277 271.113 56.277C271.113 56.277 273.569 54.5511 273.418 54.2723C273.418 54.2723 271.008 54.0958 269.736 54.6252C270.879 54.0908 272.151 53.8474 273.426 53.9193C272.922 53.3521 272.253 52.9361 271.5 52.7228C271.5 52.7228 272.844 52.2428 274.012 53.9687C274.012 53.9687 275.889 54.1805 276.11 54.3817C276.11 54.3817 275.213 52.5217 274.064 51.7134C274.064 51.7134 275.799 52.0452 276.591 54.5546L278.415 55.2323C278.415 55.2323 277.368 52.7158 276.403 51.9217C276.403 51.9217 278.115 52.5181 278.858 55.4511L280.529 56.3546C280.529 56.3546 279.801 54.124 278.93 53.0228C278.93 53.0228 280.394 53.8981 280.995 56.6299L282.035 57.357C282.035 57.357 281.475 55.737 281.284 55.2852C281.092 54.8334 281.19 54.7452 281.19 54.7452C281.902 55.584 282.353 56.5919 282.493 57.657C282.493 57.657 284.531 59.2594 284.647 59.1464Z" fill="#003F66"/>
<path opacity="0.1" d="M304.504 119.08C304.504 119.08 298.29 106.96 290.361 112.932C290.361 112.932 288.657 113.468 288.736 115.152C288.736 115.152 289.397 114.834 289.862 116.129C290.036 116.59 290.268 117.03 290.553 117.439C290.936 117.991 291.5 118.411 292.16 118.635C292.16 118.635 295.569 121.173 302.06 119.443C302.06 119.443 303.869 119.736 304.17 119.528L302.097 118.021C302.097 118.021 300.971 119.496 299.402 119.627C299.402 119.627 302.086 118.13 301.797 117.785C301.737 117.714 300.671 117.033 300.671 117.033C300.671 117.033 298.718 119.585 296.274 119.719C296.274 119.719 299.732 118.339 300.265 116.772L298.572 115.833C298.572 115.833 296.65 118.628 293.872 118.875C293.872 118.875 297.431 117.315 298.189 115.649L296.391 114.943C296.391 114.943 294.457 117.633 292.148 117.827C292.148 117.827 296.068 115.635 295.97 114.806C295.97 114.806 294.277 114.244 293.752 114.301C293.752 114.301 292.317 116.2 290.962 116.2C290.962 116.2 293.417 114.474 293.267 114.195C293.267 114.195 290.857 114.019 289.584 114.548C290.729 114.014 292.003 113.771 293.278 113.842C292.774 113.274 292.103 112.858 291.349 112.646C291.349 112.646 292.693 112.162 293.86 113.892C293.86 113.892 295.738 114.1 295.959 114.301C295.959 114.301 295.062 112.444 293.917 111.633C293.917 111.633 295.651 111.964 296.443 114.474L298.264 115.152C298.264 115.152 297.217 112.635 296.252 111.844C296.252 111.844 297.964 112.437 298.707 115.374L300.378 116.274C300.378 116.274 299.649 114.043 298.778 112.942C298.778 112.942 300.243 113.817 300.847 116.553L301.887 117.259C301.887 117.259 301.324 115.639 301.136 115.187C300.948 114.735 301.042 114.647 301.042 114.647C301.756 115.485 302.207 116.493 302.345 117.559C302.345 117.559 304.387 119.186 304.504 119.08Z" fill="#003F66"/>
<path opacity="0.1" d="M75.8172 276.765C80.584 276.765 84.4482 276.358 84.4482 275.858C84.4482 275.357 80.584 274.95 75.8172 274.95C71.0504 274.95 67.1862 275.357 67.1862 275.858C67.1862 276.358 71.0504 276.765 75.8172 276.765Z" fill="#003F66"/>
<path opacity="0.1" d="M19.2367 261.348C24.0035 261.348 27.8678 260.942 27.8678 260.441C27.8678 259.94 24.0035 259.534 19.2367 259.534C14.47 259.534 10.6057 259.94 10.6057 260.441C10.6057 260.942 14.47 261.348 19.2367 261.348Z" fill="#003F66"/>
<path opacity="0.1" d="M268.136 260.3C272.903 260.3 276.767 259.894 276.767 259.393C276.767 258.892 272.903 258.486 268.136 258.486C263.369 258.486 259.505 258.892 259.505 259.393C259.505 259.894 263.369 260.3 268.136 260.3Z" fill="#003F66"/>
<path opacity="0.1" d="M221.674 281.766C227.311 281.766 231.881 281.028 231.881 280.118C231.881 279.207 227.311 278.469 221.674 278.469C216.036 278.469 211.466 279.207 211.466 280.118C211.466 281.028 216.036 281.766 221.674 281.766Z" fill="#003F66"/>
<path d="M226.228 263.55C226.228 263.55 212.014 270.454 219.357 278.586C219.357 278.586 220.048 280.351 222.045 280.227C222.045 280.227 221.647 279.542 223.172 278.995C223.714 278.798 224.229 278.541 224.707 278.229C225.353 277.81 225.835 277.204 226.081 276.503C226.081 276.503 228.987 272.847 226.734 266.081C226.734 266.081 227.027 264.168 226.772 263.857L225.045 266.085C225.045 266.085 226.828 267.21 227.035 268.866C227.035 268.866 225.158 266.088 224.782 266.395C224.7 266.459 223.926 267.613 223.926 267.613C223.926 267.613 227.02 269.586 227.249 272.148C227.249 272.148 225.507 268.559 223.626 268.047L222.548 269.854C222.548 269.854 225.927 271.788 226.303 274.696C226.303 274.696 224.339 271.008 222.334 270.263L221.542 272.173C221.542 272.173 224.801 274.121 225.101 276.542C225.101 276.542 222.376 272.494 221.396 272.621C221.396 272.621 220.78 274.414 220.863 274.968C220.863 274.968 223.164 276.415 223.205 277.838C223.205 277.838 221.08 275.314 220.754 275.48C220.754 275.48 220.619 278.018 221.272 279.338C221.272 279.338 220.146 277.453 220.33 275.48C219.671 276.027 219.197 276.744 218.967 277.541C218.967 277.541 218.355 276.147 220.371 274.862C220.371 274.862 220.562 272.889 220.795 272.646C220.795 272.646 218.614 273.648 217.687 274.876C217.687 274.876 218.028 273.045 220.987 272.134L221.737 270.2C221.737 270.2 218.779 271.379 217.867 272.416C217.867 272.416 218.524 270.599 221.97 269.727L222.991 267.962C222.991 267.962 220.363 268.795 219.079 269.727C219.079 269.727 220.074 268.163 223.307 267.443L224.136 266.332C224.136 266.332 222.229 266.97 221.696 267.2C221.163 267.429 221.058 267.316 221.058 267.316C222.032 266.541 223.216 266.036 224.478 265.855C224.478 265.855 226.359 263.67 226.228 263.55Z" fill="#003F66"/>
<path d="M268.414 133.162C265.959 126.89 252.444 126.301 246.579 127.9C242.412 129.04 233.627 130.324 228.934 130.97L228.63 130.699C229.239 130.529 229.254 130.113 229.179 129.495C229.135 128.681 229.147 127.865 229.216 127.053C232.092 127.893 234.652 125.906 234.652 125.906C238.031 124.494 237.123 118.451 237.768 116.8C238.253 115.564 238.774 108.287 239.007 104.658H239.056L239.082 103.441C239.116 102.915 239.131 102.608 239.131 102.608C239.131 102.608 239.461 93.7347 240.107 91.9382C240.708 90.2865 241.196 81.9641 241.271 80.644C241.271 80.5311 241.271 80.4711 241.271 80.4711L241.222 79.7017C241.256 79.1405 241.271 78.5158 241.267 77.8593C241.267 74.8416 240.933 71.0404 240.892 70.4263C240.892 70.3381 240.892 70.2322 240.892 70.1051C240.918 68.8169 240.745 62.3651 234.907 59.9262C232.756 59.0227 230.17 57.9462 227.666 56.898C227.02 51.6567 225.544 46.4438 225.672 41.1637C225.672 40.3696 225.747 39.5755 225.83 38.7849C225.83 39.0143 225.803 39.2472 225.8 39.4908C225.8 40.0025 225.8 40.5178 225.8 41.0296C226.021 34.426 228.675 27.7871 228.428 21.3247C228.405 21.9565 228.356 22.5918 228.292 23.2271C228.422 21.0413 228.179 18.85 227.572 16.7365C227.346 15.9917 227.042 15.2223 226.393 14.7247C225.779 14.3239 225.075 14.0618 224.336 13.9588C222.559 13.5313 220.754 13.2153 218.933 13.0129C218.656 12.2166 218.246 11.4671 217.717 10.7929C213.91 5.87989 208.271 1.26338 201.604 0.20455C198.258 -0.324866 194.41 0.116314 192.135 2.36457C191.898 2.56207 191.674 2.77431 191.467 2.99987C190.243 4.37282 189.718 6.17637 188.464 7.54579C188.381 7.63755 188.287 7.72226 188.197 7.8105C185.742 9.87522 181.916 10.3058 179.187 12.1588C178.706 12.4914 178.255 12.8609 177.839 13.2635C176.739 14.2881 175.753 15.415 174.896 16.627C173.668 18.2506 172.407 19.9412 172.016 21.8788C171.232 25.7612 174.044 29.4424 174.565 33.3495C175.729 42.092 165.439 49.8497 167.387 58.4756C167.907 60.5948 169.055 62.532 170.698 64.0627C166.685 67.4792 163.269 70.7934 163.269 70.7934V70.991H162.634L162.698 71.6969H162.634L162.983 75.5264L162.634 81.1029C162.634 81.1029 162.634 81.1629 162.634 81.2758V81.304V81.4558C162.634 81.4558 162.634 81.5158 162.634 81.6288H162.657C162.773 83.6723 163.235 91.0206 163.783 92.57C164.429 94.3665 164.755 103.24 164.755 103.24C164.755 103.24 165.469 115.78 166.122 117.438C166.775 119.097 165.848 125.122 169.238 126.544C170.23 127.26 171.404 127.717 172.643 127.871C172.47 129.191 172.579 130.148 173.139 130.448C173.378 130.58 173.649 130.653 173.927 130.66C173.697 130.98 173.493 131.317 173.315 131.666C171.97 131.534 170.647 131.241 169.381 130.794C165.739 129.382 153.654 126.206 150.144 128.44C146.634 130.674 138.187 132.7 142.087 141.693C145.988 150.686 147.805 150.912 147.805 150.912C149.006 151.731 150.059 152.726 150.925 153.859C152.096 155.514 163.01 159.301 165.739 159.301C166.899 159.284 168.059 159.339 169.212 159.464C169.212 159.464 166.25 161.906 166.644 163.325C167.038 164.744 165.743 176.101 165.743 176.101C165.743 176.101 168.746 178.946 170.03 175.215L170.075 175.272C170.316 175.579 171.615 176.966 174.059 175.215C175.059 174.502 176.121 173.869 177.235 173.324L189.068 171.749C190.302 171.677 191.539 171.669 192.774 171.725C194.651 171.869 196.494 170.825 197.654 170.017C200.106 170.892 202.861 171.848 204.171 172.198C206.829 172.904 219.046 175.985 221.903 175.021C222.497 174.799 223.025 174.446 223.442 173.991L226.168 174.072L224.891 174.312C224.891 174.312 227.376 174.351 230.755 174.393L230.613 174.471L234.851 174.435C241.053 174.488 248.021 174.506 248.937 174.312C250.371 174.012 257.823 174.224 260.02 174.312H260.632C260.632 174.312 268.82 172.777 265.441 164.966C262.843 158.966 254.858 157.222 251.314 156.742C252.312 156.555 253.172 156.411 253.743 156.326C256.217 155.973 261.022 153.855 261.413 153.132C261.803 152.408 265.831 150.308 266.871 149.112C267.911 147.915 270.881 139.434 268.414 133.162ZM200.594 150.714L200.192 150.838L199.922 150.922L199.404 151.402C198.991 151.141 198.548 150.866 198.086 150.583C198.9 150.629 199.738 150.675 200.594 150.714Z" fill="url(#paint0_linear)"/>
<path d="M224.531 113.5C224.531 113.5 230.275 127.618 233.541 126.206C236.807 124.794 235.921 118.794 236.544 117.149C237.167 115.505 237.858 103.031 237.858 103.031C237.858 103.031 238.174 94.2079 238.797 92.422C239.375 90.7808 239.844 82.5042 239.923 81.2019C239.923 81.0889 239.923 81.0289 239.923 81.0289L239.304 70.7936L235.797 69.9712L227.665 72.7947L226.539 78.8407L226.1 81.2019L225.912 82.2078L224.531 113.5Z" fill="#BE6F72"/>
<path opacity="0.1" d="M226.423 111.135C226.423 111.135 231.904 115.353 233.556 115.723C235.208 116.094 236.221 119.383 236.221 119.383" fill="black"/>
<path d="M179.611 114.117C179.611 114.117 173.867 128.235 170.601 126.823C167.335 125.412 168.221 119.412 167.597 117.767C166.974 116.122 166.283 103.649 166.283 103.649C166.283 103.649 165.968 94.8255 165.345 93.0396C164.767 91.3984 164.297 83.1218 164.219 81.8195C164.219 81.7065 164.219 81.6465 164.219 81.6465L164.842 71.4112L168.348 70.5888L176.48 73.4124L177.606 79.4583L178.045 81.8195L178.233 82.8254L179.611 114.117Z" fill="#BE6F72"/>
<path d="M217.015 38.5662H204.194V57.3534H217.015V38.5662Z" fill="#3E373A"/>
<path opacity="0.1" d="M217.015 38.5662H204.194V57.3534H217.015V38.5662Z" fill="black"/>
<path d="M177.359 128.179C177.359 128.179 172.977 132.707 174.603 133.529C176.228 134.352 186.744 149.765 186.744 149.765C186.744 149.765 221.283 153.764 227.797 147.764C234.31 141.764 234.179 131.045 234.179 131.045C234.179 131.045 228.946 132.103 228.375 131.528C227.804 130.953 224.67 128.179 224.67 128.179C224.67 128.179 180.362 125.652 177.359 128.179Z" fill="#4B4B5B"/>
<path opacity="0.02" d="M177.359 128.179C177.359 128.179 172.977 132.707 174.603 133.529C176.228 134.352 186.744 149.765 186.744 149.765C186.744 149.765 221.283 153.764 227.797 147.764C234.31 141.764 234.179 131.045 234.179 131.045C234.179 131.045 228.946 132.103 228.375 131.528C227.804 130.953 224.67 128.179 224.67 128.179C224.67 128.179 180.362 125.652 177.359 128.179Z" fill="black"/>
<path d="M239.536 70.9418L228.274 79.4124L224.869 79.6454L223.618 79.7301L202.621 81.1771L180.846 79.6807L177.606 79.4583L173.477 79.1759L164.842 71.4112C164.842 71.4112 170.954 65.2558 176.307 61.1017C178.417 59.4605 180.411 58.1334 181.864 57.6111L182.111 57.5299C183.025 57.1948 183.841 56.6601 184.492 55.9699C188.719 51.8722 192.627 41.7604 192.627 41.7604C192.627 41.7604 211.274 32.7038 209.022 44.5839C206.769 56.464 217.405 53.5275 217.405 53.5275L220.912 55.031L222.297 55.6275L225.83 57.1487L233.8 60.5864C240.055 63.2935 239.536 70.9418 239.536 70.9418Z" fill="#BE6F72"/>
<path opacity="0.1" d="M201.746 51.4345C211.008 51.4345 218.516 44.3759 218.516 35.6685C218.516 26.9612 211.008 19.9025 201.746 19.9025C192.484 19.9025 184.976 26.9612 184.976 35.6685C184.976 44.3759 192.484 51.4345 201.746 51.4345Z" fill="black"/>
<path opacity="0.1" d="M239.563 82.1725H164.219C164.219 82.0595 164.219 81.9995 164.219 81.9995L164.842 71.7641C164.842 71.7641 170.954 65.6088 176.307 61.4546L223.611 59.6899L225.811 57.5087L233.781 60.9464C240.039 63.65 239.536 71.2983 239.536 71.2983C239.536 71.2983 240.392 80.1607 239.563 82.1725Z" fill="black"/>
<path d="M239.563 81.8195H164.219C164.219 81.7066 164.219 81.6466 164.219 81.6466L164.842 71.4112C164.842 71.4112 170.954 65.2558 176.307 61.1017L223.611 59.337L225.811 57.1558L233.781 60.5934C240.039 63.297 239.536 70.9453 239.536 70.9453C239.536 70.9453 240.392 79.8077 239.563 81.8195Z" fill="#E7C7CA"/>
<path opacity="0.1" d="M189.669 53.1181C189.669 53.1181 201.555 67.3559 217.386 52.8252C233.218 38.2945 219.14 85.236 219.14 85.236L184.976 89.0478L189.669 53.1181Z" fill="black"/>
<path d="M189.669 53.824C189.669 53.824 201.555 68.0618 217.386 53.531C233.218 39.0003 219.14 85.9419 219.14 85.9419L184.976 89.7537L189.669 53.824Z" fill="#E7C7CA"/>
<path opacity="0.1" d="M222.278 56.3228L223.536 74.3547L224.884 80.3548L225.912 84.9431C225.912 84.9431 228.54 120.237 227.789 122.002C227.038 123.767 228.165 125.179 228.322 126.118C228.48 127.056 228.165 129.414 228.289 130.473C228.413 131.532 228.289 132.001 225.413 131.623C222.537 131.246 218.528 130.589 218.528 130.589C218.528 130.589 208.391 131.295 204.888 130.12C201.386 128.945 194.752 128.941 194.752 128.941C194.752 128.941 184.739 129.178 181.488 128.825C178.237 128.472 176.48 132.591 174.355 131.412C172.23 130.233 176.855 118.826 178.357 115.529C179.859 112.233 176.356 103.882 176.356 103.882L180.861 80.3866L181.864 75.0606V58.317L182.111 58.2358C183.025 57.9008 183.841 57.366 184.492 56.6758L185.618 73.5253L220.908 74.7042V55.7405" fill="black"/>
<path d="M222.278 55.6169L223.536 73.6488L224.884 79.6489L225.912 84.2371C225.912 84.2371 228.54 119.532 227.789 121.296C227.038 123.061 228.165 124.473 228.322 125.412C228.48 126.35 228.165 128.708 228.289 129.767C228.413 130.826 228.289 131.295 225.413 130.918C222.537 130.54 218.528 129.883 218.528 129.883C218.528 129.883 208.391 130.589 204.888 129.414C201.386 128.239 194.752 128.235 194.752 128.235C194.752 128.235 184.739 128.472 181.488 128.119C178.237 127.766 176.48 131.885 174.355 130.706C172.23 129.527 176.855 118.12 178.357 114.823C179.859 111.527 176.356 103.176 176.356 103.176L180.861 79.6806L181.864 74.3547V57.611L182.111 57.5299C183.025 57.1948 183.841 56.6601 184.492 55.9698L185.618 72.8194L220.908 73.9982V55.0345" fill="#E7C7CA"/>
<path opacity="0.1" d="M226.337 17.986C226.123 17.2484 225.826 16.4825 225.21 15.9884C224.622 15.5915 223.943 15.3303 223.228 15.226C221.516 14.8027 219.775 14.489 218.017 14.2872C217.766 13.5035 217.386 12.7615 216.891 12.0883C213.212 7.20359 207.768 2.59767 201.363 1.55648C198.011 1.00942 194.125 1.50001 191.978 3.98474C190.799 5.35063 190.292 7.16123 189.102 8.50242C186.808 11.1072 182.667 11.4283 179.776 13.4436C178.233 14.5025 177.115 16.0378 176.022 17.5272C174.839 19.1402 173.623 20.8202 173.248 22.7472C172.497 26.5979 175.204 30.2685 175.703 34.1544C176.829 42.8474 166.918 50.5592 168.791 59.1358C169.884 64.137 174.798 67.6594 179.881 69.4453C181.672 70.0771 183.718 70.7053 184.555 72.3218C184.931 73.0277 184.995 73.843 185.348 74.5559C186.534 76.9348 190.435 77.0265 192.529 75.2936C194.624 73.5606 195.285 70.7582 195.533 68.1429C196.539 56.7217 191.674 45.438 192.24 33.9885C192.409 30.5261 193.446 26.5979 196.746 25.0308C201.187 22.9131 206.529 26.4426 211.417 25.7684C213.73 31.0596 214.221 36.8992 212.821 42.4662C212.044 45.5121 210.7 48.4663 210.602 51.6075C210.456 56.3899 213.2 60.7593 215.573 64.9876C216.082 65.7783 216.423 66.6546 216.576 67.5676C216.613 68.494 216.429 69.4165 216.039 70.2676C214.698 73.6594 212.386 76.8077 212.123 80.4183C212.046 80.8398 212.147 81.2729 212.405 81.6254C212.669 81.8606 213.01 82.0049 213.373 82.0348C217.428 82.6878 220.934 79.3101 222.913 75.9183C225.119 72.1721 226.404 68.009 226.674 63.7346C227.084 56.5487 224.343 49.4792 224.512 42.2862C224.707 34.1085 228.638 25.8743 226.337 17.986Z" fill="black"/>
<path d="M226.712 17.6331C226.498 16.8955 226.201 16.1296 225.585 15.6355C224.998 15.2386 224.318 14.9774 223.603 14.8731C221.891 14.4498 220.15 14.1361 218.392 13.9343C218.141 13.1506 217.761 12.4086 217.266 11.7354C213.587 6.85068 208.143 2.24476 201.738 1.20358C198.386 0.656513 194.5 1.1471 192.353 3.63183C191.174 4.99772 190.667 6.80833 189.477 8.14951C187.183 10.7542 183.042 11.0754 180.152 13.0907C178.609 14.1496 177.49 15.6849 176.397 17.1743C175.215 18.7872 173.998 20.4673 173.623 22.3943C172.872 26.245 175.579 29.9156 176.078 33.8015C177.204 42.4945 167.293 50.2063 169.167 58.7829C170.259 63.7841 175.173 67.3065 180.257 69.0924C182.047 69.7241 184.093 70.3524 184.931 71.9689C185.306 72.6747 185.37 73.4901 185.723 74.203C186.909 76.5818 190.81 76.6736 192.905 74.9406C195 73.2077 195.66 70.4053 195.908 67.79C196.914 56.3687 192.049 45.0851 192.616 33.6356C192.785 30.1732 193.821 26.245 197.121 24.6779C201.562 22.5602 206.904 26.0897 211.792 25.4155C214.105 30.7067 214.596 36.5462 213.196 42.1133C212.419 45.1592 211.075 48.1134 210.978 51.2546C210.831 56.037 213.576 60.4064 215.948 64.6347C216.457 65.4254 216.798 66.3017 216.951 67.2147C216.988 68.1411 216.805 69.0636 216.414 69.9147C215.074 73.3065 212.761 76.4548 212.498 80.0654C212.421 80.4869 212.522 80.92 212.78 81.2725C213.044 81.5077 213.386 81.652 213.748 81.6819C217.803 82.3348 221.309 78.9571 223.288 75.5654C225.494 71.8191 226.779 67.6561 227.05 63.3817C227.459 56.1958 224.718 49.1263 224.887 41.9333C225.082 33.7556 229.013 25.5214 226.712 17.6331Z" fill="#3E373A"/>
<path d="M218.419 173.906L233.312 174.354L231.176 163.971L219.766 164.991L218.419 173.906Z" fill="#C3C7D9"/>
<path d="M264.566 149.295C263.563 150.471 259.685 152.588 259.31 153.294C258.934 154 254.306 156.118 251.925 156.471C249.545 156.824 242.04 158.355 240.663 159.178C239.675 159.771 231.75 161.648 226.543 162.69C225.132 163.003 223.705 163.245 222.267 163.413C220.014 163.53 195.364 155.648 195.364 155.648L200.117 151.06L200.379 150.975C201.723 150.548 207.933 148.575 211.379 147.637C215.261 146.578 219.766 142.226 219.766 142.226C219.766 142.226 226.396 140.108 227.275 139.872C228.153 139.635 225.022 131.638 225.022 131.638C225.022 131.638 239.412 129.76 245.044 128.168C250.675 126.576 263.691 127.166 266.068 133.402C268.444 139.639 265.583 148.12 264.566 149.295Z" fill="#4B4B5B"/>
<path d="M198.99 169.177C198.99 169.177 196.115 172 193.235 171.767C190.356 171.534 180.287 172.473 180.287 172.473C178.462 173.157 176.753 174.088 175.215 175.237C172.861 176.98 171.611 175.59 171.378 175.293L171.337 175.237C170.083 178.946 167.207 176.119 167.207 176.119C167.207 176.119 168.457 164.825 168.074 163.413C167.691 162.001 170.548 159.577 170.548 159.577L173.927 158.768L182.487 156.707L194.752 160.706L198.99 169.177Z" fill="#E7C7CA"/>
<path opacity="0.1" d="M173.912 158.768L171.378 175.293L171.337 175.237C170.083 178.946 167.207 176.119 167.207 176.119C167.207 176.119 168.457 164.825 168.074 163.413C167.691 162.001 170.548 159.577 170.548 159.577L173.912 158.768Z" fill="black"/>
<path opacity="0.1" d="M191.625 111.763C191.625 111.763 198.255 113.881 204.014 111.763H191.625Z" fill="black"/>
<path opacity="0.1" d="M214.259 115.766C214.259 115.766 217.011 117.057 219.14 115.766H214.259Z" fill="black"/>
<path opacity="0.1" d="M214.259 118.829C214.259 118.829 218.888 119.412 219.767 118.236L214.259 118.829Z" fill="black"/>
<path opacity="0.1" d="M212.757 125.412C212.757 125.412 221.452 124.353 223.611 122.941L212.757 125.412Z" fill="black"/>
<path opacity="0.1" d="M186.226 122.941C186.226 122.941 191.106 125.528 194.737 125.412L186.226 122.941Z" fill="black"/>
<path opacity="0.1" d="M226.539 162.69C225.129 163.003 223.701 163.245 222.263 163.413C220.011 163.53 195.36 155.648 195.36 155.648L200.113 151.06L200.376 150.975C201.127 151.473 201.742 151.9 202.182 152.225C204.25 153.757 206.247 151.755 206.998 151.755C207.749 151.755 214.255 156.813 214.255 156.813C214.255 156.813 220.262 158.108 221.264 159.284C222.267 160.459 225.77 160.226 226.393 161.048C226.58 161.302 226.603 161.927 226.539 162.69Z" fill="black"/>
<path d="M180.287 132.118C180.287 132.118 174.212 132.446 170.71 131.059C167.207 129.672 155.569 126.47 152.19 128.719C148.811 130.967 140.676 132.954 144.43 141.898C148.184 150.841 149.937 151.074 149.937 151.074C151.099 151.893 152.113 152.882 152.941 154.004C154.067 155.652 164.579 159.414 167.207 159.414C169.835 159.414 174.464 159.414 180.97 163.65C187.476 167.885 193.359 168.358 193.359 168.358C193.359 168.358 201.618 171.534 204.19 172.24C206.762 172.946 218.513 176.003 221.268 175.064C224.024 174.125 225.773 168.238 225.773 168.238C225.773 168.238 227.023 162.944 226.397 162.121C225.77 161.299 222.267 161.532 221.268 160.357C220.27 159.181 214.259 157.886 214.259 157.886C214.259 157.886 207.768 152.825 207.017 152.825C206.266 152.825 204.269 154.822 202.2 153.294C198.08 150.425 193.75 147.83 189.244 145.529C184.492 143.175 180.287 132.118 180.287 132.118Z" fill="#4B4B5B"/>
<path opacity="0.1" d="M168.074 135.53C169.156 135.323 170.274 135.353 171.341 135.618C172.408 135.883 173.396 136.376 174.227 137.059C177.231 139.413 187.337 144.139 187.337 144.139" fill="black"/>
<path opacity="0.1" d="M243.167 135.382C243.167 135.382 229.775 137.288 227.275 139.875L243.167 135.382Z" fill="black"/>
<path d="M258.559 174.354H257.97C255.852 174.284 248.678 174.072 247.296 174.354C245.671 174.707 224.144 174.354 224.144 174.354L228.352 173.532C228.352 173.532 226.791 168.386 227.782 167.959C227.782 167.959 222.15 164.472 226.396 162.118C230.642 159.764 235.219 160.755 235.219 160.755L245.877 157.36L247.923 156.707C247.923 156.707 259.937 157.297 263.188 165.061C266.439 172.826 258.559 174.354 258.559 174.354Z" fill="#E7C7CA"/>
<path opacity="0.1" d="M258.559 174.354H257.97C261.465 171.644 269.372 163.392 245.877 157.378L247.924 156.725C247.924 156.725 259.937 157.314 263.188 165.079C266.44 172.844 258.559 174.354 258.559 174.354Z" fill="black"/>
<path d="M236.473 165.206C236.836 165.206 237.13 164.93 237.13 164.588C237.13 164.247 236.836 163.971 236.473 163.971C236.11 163.971 235.816 164.247 235.816 164.588C235.816 164.93 236.11 165.206 236.473 165.206Z" fill="#4B4B5B"/>
<path d="M232.655 166.226C233.018 166.226 233.312 165.95 233.312 165.608C233.312 165.267 233.018 164.991 232.655 164.991C232.292 164.991 231.998 165.267 231.998 165.608C231.998 165.95 232.292 166.226 232.655 166.226Z" fill="#4B4B5B"/>
<g opacity="0.1">
<path opacity="0.1" d="M214.053 35.0875C214.198 31.2054 213.464 27.3386 211.898 23.7439C207.017 24.4286 201.671 20.8885 197.226 23.0062C193.937 24.5733 192.905 28.5015 192.721 31.9639C192.676 32.878 192.668 33.7922 192.687 34.7063C192.687 34.3816 192.687 34.0533 192.721 33.7286C192.894 30.2663 193.926 26.338 197.226 24.7709C201.671 22.6533 207.01 26.1827 211.898 25.5086C213.224 28.5534 213.954 31.7985 214.053 35.0875Z" fill="black"/>
<path opacity="0.1" d="M176.232 34.4403C176.297 33.6712 176.28 32.8981 176.183 32.132C175.786 29.0261 173.98 26.0579 173.653 23.0296C173.233 26.6826 175.707 30.1908 176.183 33.8967C176.232 34.0873 176.232 34.2567 176.232 34.4403Z" fill="black"/>
<path opacity="0.1" d="M196.013 66.1135C195.781 68.7323 195.124 71.5312 193.01 73.2677C190.896 75.0042 187.003 74.9089 185.828 72.53C185.453 71.8241 185.396 71.0018 185.032 70.2959C184.199 68.6794 182.149 68.0512 180.358 67.4194C175.271 65.63 170.364 62.1252 169.272 57.1099C169.174 56.6555 169.108 56.1958 169.073 55.7334C168.981 56.784 169.048 57.8417 169.272 58.8746C170.364 63.8758 175.279 67.3947 180.358 69.1841C182.149 69.8159 184.199 70.4441 185.032 72.0606C185.408 72.7665 185.471 73.5818 185.828 74.2948C187.011 76.6736 190.911 76.7654 193.01 75.0324C195.109 73.2995 195.762 70.4971 196.013 67.8782C196.128 66.4998 196.167 65.1168 196.13 63.7347C196.13 64.5358 196.081 65.3264 196.013 66.1135Z" fill="black"/>
<path opacity="0.1" d="M225.011 40.2603C225.011 40.7721 225.011 41.2803 225.011 41.7886C225.221 35.2238 227.782 28.6238 227.53 22.1967C227.335 28.1402 225.154 34.2179 225.011 40.2603Z" fill="black"/>
<path opacity="0.1" d="M216.955 66.8158C217.047 66.3971 217.076 65.9681 217.041 65.5417C216.89 64.6283 216.549 63.7517 216.039 62.9617C213.869 59.0793 211.394 55.1052 211.102 50.7957C211.102 50.9792 211.075 51.1487 211.072 51.3463C210.921 56.1252 213.666 60.4981 216.039 64.7264C216.442 65.3813 216.75 66.084 216.955 66.8158Z" fill="black"/>
<path opacity="0.1" d="M227.17 61.7088C226.89 65.9847 225.595 70.1476 223.382 73.8924C221.4 77.2842 217.897 80.6618 213.838 80.0089C213.475 79.9794 213.133 79.8337 212.87 79.596C212.794 79.5151 212.734 79.4218 212.693 79.3207C212.648 79.596 212.611 79.8748 212.588 80.1571C212.511 80.5775 212.612 81.0097 212.87 81.3607C213.133 81.5984 213.475 81.7442 213.838 81.7736C217.897 82.4266 221.4 79.0489 223.382 75.6571C225.595 71.9123 226.89 67.7495 227.17 63.4735C227.215 62.6476 227.219 61.8252 227.192 61.0029C227.185 61.2393 227.185 61.4723 227.17 61.7088Z" fill="black"/>
</g>
<path opacity="0.1" d="M227.782 167.959C227.782 167.959 237.284 171.707 243.55 163.413" stroke="black" stroke-miterlimit="10"/>
<path opacity="0.1" d="M229.651 174.51C229.651 174.51 237.411 169.766 247.296 174.354" stroke="black" stroke-miterlimit="10"/>
<path opacity="0.1" d="M177.708 173.433C177.708 173.433 180.966 166.523 189.669 171.792" stroke="black" stroke-miterlimit="10"/>
<path opacity="0.1" d="M167.143 71.2347L173.788 65.5876C173.788 65.5876 199.554 63.9994 200.62 72.2335C200.62 72.2335 209.754 62.4711 228.964 64.6453L237.092 70.73L214.627 79.9983L192.796 87.1172L176.716 80.3513L167.143 71.2347Z" fill="black"/>
<path d="M167.143 71.5876L173.788 65.9405C173.788 65.9405 199.554 64.3523 200.62 72.5865C200.62 72.5865 209.754 62.824 228.964 64.9982L237.092 71.0829L214.627 80.3512L192.796 87.4701L176.716 80.7042L167.143 71.5876Z" fill="#D5D6DB"/>
<path opacity="0.1" d="M164.204 72.2935L167.143 105.354L198.303 106.826L196.952 73.9065L196.926 73.3524L164.204 72.2935Z" fill="black"/>
<path d="M164.204 71.5876L167.143 104.648L198.303 106.12L196.952 73.2006L196.926 72.6465L164.204 71.5876Z" fill="#003F66"/>
<path opacity="0.1" d="M238.519 71.5876L206.375 76.1194V109.328L237.787 105.061L238.519 71.5876Z" fill="black"/>
<path d="M238.519 70.8817L206.375 75.4135V108.622L237.787 104.355L238.519 70.8817Z" fill="#003F66"/>
<path opacity="0.3" d="M230.939 78.9854L213.576 80.7995L213.955 86.3619L230.928 84.6183L230.939 78.9854Z" fill="white"/>
<path d="M168.833 122.352L170.601 126.823C170.601 126.823 173.229 128.941 176.105 127.882C178.98 126.823 181.488 126.298 182.738 125.267C183.989 124.236 185.742 119.059 185.742 119.059C185.742 119.059 187.495 113.412 189.245 112C190.994 110.588 195.627 91.1373 189.245 93.0396C182.862 94.942 177.982 112.589 177.982 112.589C177.982 112.589 176.856 113.881 175.23 114.001C173.604 114.121 170.349 113.765 169.722 115.06C169.095 116.355 166.956 119.765 168.833 122.352Z" fill="#BE6F72"/>
<path opacity="0.1" d="M206.375 76.1159C204.729 76.4646 203.02 76.4463 201.383 76.0627C199.746 75.679 198.227 74.9406 196.948 73.9065L198.303 106.822C198.303 106.822 201.494 110.069 206.375 109.328V76.1159Z" fill="black"/>
<path d="M206.375 75.41C204.729 75.7587 203.02 75.7405 201.383 75.3568C199.746 74.9732 198.227 74.2348 196.948 73.2006L198.303 106.116C198.303 106.116 201.494 109.363 206.375 108.622V75.41Z" fill="#003F66"/>
<path opacity="0.1" d="M206.375 75.41C204.729 75.7587 203.02 75.7405 201.383 75.3568C199.746 74.9732 198.227 74.2348 196.948 73.2006L198.303 106.116C198.303 106.116 201.494 109.363 206.375 108.622V75.41Z" fill="black"/>
<path opacity="0.1" d="M207.126 71.7006C207.126 71.7006 220.202 67.9417 223.611 68.4711L207.126 71.7006Z" fill="black"/>
<path opacity="0.1" d="M192.499 70.0594C192.499 70.0594 179.825 67.2359 177.708 68.0371L192.499 70.0594Z" fill="black"/>
<path opacity="0.1" d="M215.37 72.17C215.37 72.17 224.114 69.1559 227.275 70.5888L215.37 72.17Z" fill="black"/>
<path opacity="0.1" d="M210.967 147.781C212.321 146.825 213.764 145.983 215.276 145.265C217.529 144.245 221.659 141.598 221.659 141.598" fill="black"/>
<path opacity="0.1" d="M177.708 111.763C177.708 111.763 172.223 115.981 170.574 116.352C168.926 116.722 167.909 120.012 167.909 120.012" fill="black"/>
<path d="M235.294 121.723L233.545 126.206C233.545 126.206 230.917 128.323 228.037 127.265C225.158 126.206 222.657 125.68 221.403 124.649C220.149 123.619 218.4 118.441 218.4 118.441C218.4 118.441 216.65 112.794 214.897 111.382C213.144 109.97 208.515 90.5196 214.897 92.422C221.279 94.3243 226.16 111.972 226.16 111.972C226.16 111.972 227.286 113.263 228.912 113.383C230.537 113.503 233.792 113.147 234.419 114.442C235.046 115.737 237.171 119.147 235.294 121.723Z" fill="#BE6F72"/>
<path opacity="0.1" d="M232.227 113.479C232.227 113.479 235.812 115.646 235.797 118.236L232.227 113.479Z" fill="black"/>
<path d="M201.806 50.6616C211.068 50.6616 218.576 43.6029 218.576 34.8956C218.576 26.1883 211.068 19.1296 201.806 19.1296C192.544 19.1296 185.036 26.1883 185.036 34.8956C185.036 43.6029 192.544 50.6616 201.806 50.6616Z" fill="#BE6F72"/>
<path d="M191.275 30.6638C193.31 30.3638 195.094 29.252 197.038 28.6132C201.389 27.1767 206.202 28.1614 210.606 29.4567C212.296 29.9544 214.011 30.5155 215.783 30.5155C217.555 30.5155 219.436 29.8344 220.341 28.3979C221.174 27.0779 221.013 25.3626 220.311 23.9755C219.609 22.5884 218.434 21.4731 217.247 20.4213C213.343 16.9554 208.5 13.7154 203.143 14.0683C200.988 14.2131 198.927 14.9366 196.944 15.7378C194.448 16.749 192.019 17.8992 189.669 19.1825C187.863 20.1672 184.518 21.4837 183.478 23.2837C181.113 27.339 187.596 31.2073 191.275 30.6638Z" fill="#3E373A"/>
<path opacity="0.1" d="M220.341 26.9155C219.436 28.352 217.555 29.0332 215.783 29.0332C214.011 29.0332 212.296 28.4932 210.602 27.9955C206.199 26.7002 201.389 25.712 197.035 27.152C195.094 27.7908 193.307 28.9167 191.272 29.199C188.306 29.6367 183.531 27.2084 183.012 24.1202C182.431 27.6884 187.968 30.7449 191.272 30.2579C193.307 29.9579 195.094 28.8461 197.035 28.2108C201.389 26.7708 206.199 27.759 210.602 29.0543C212.296 29.552 214.007 30.1132 215.783 30.092C217.559 30.0708 219.436 29.4143 220.341 27.9743C220.81 27.1909 220.994 26.2852 220.867 25.3943C220.808 25.9307 220.629 26.4492 220.341 26.9155Z" fill="black"/>
</g>
<defs>
<linearGradient id="paint0_linear" x1="205.223" y1="177.15" x2="205.223" y2="-0.000158413" gradientUnits="userSpaceOnUse">
<stop stop-color="#808080" stop-opacity="0.25"/>
<stop offset="0.54" stop-color="#808080" stop-opacity="0.12"/>
<stop offset="1" stop-color="#808080" stop-opacity="0.1"/>
</linearGradient>
<clipPath id="clip0">
<rect width="384" height="287" fill="white"/>
</clipPath>
</defs>
</svg>
